<svg width="60" height="60" viewBox="0 0 60 60" fill="none" xmlns="http://www.w3.org/2000/svg">
<g clip-path="url(#clip0_251_371)">
<path fill-rule="evenodd" clip-rule="evenodd" d="M3.24463 8.66663H41.1765L14.7872 36.4669L14.7863 36.4678C14.5187 36.7471 14.1594 36.9019 13.7869 36.9019C13.4143 36.9019 13.0549 36.7469 12.7873 36.4674L0 23.0146V12.0966C0 11.1837 0.344136 10.3102 0.953703 9.6677C1.56295 9.02554 2.38722 8.66663 3.24463 8.66663Z" fill="#369673"/>
<path fill-rule="evenodd" clip-rule="evenodd" d="M15.8363 42.5259L49.7094 8.66663H56.7226C57.5924 8.66663 58.4258 9.01167 59.04 9.62469C59.6541 10.2376 59.9989 11.0681 60 11.9337V45.3955C60 46.2617 59.6557 47.0933 59.0415 47.7071C58.4272 48.321 57.5931 48.6666 56.7226 48.6666H3.27742C2.4069 48.6666 1.57284 48.321 0.958512 47.7071C0.344317 47.0933 0 46.2617 0 45.3955V30.5566L11.9736 42.5219L11.9777 42.5259C12.4931 43.0321 13.186 43.315 13.907 43.315C14.628 43.315 15.3209 43.0321 15.8363 42.5259Z" fill="white"/>
<path fill-rule="evenodd" clip-rule="evenodd" d="M15.8363 42.5259L49.7094 8.66663H56.7226C57.5924 8.66663 58.4258 9.01167 59.04 9.62469C59.6541 10.2376 59.9989 11.0681 60 11.9337V45.3955C60 46.2617 59.6557 47.0933 59.0415 47.7071C58.4272 48.321 57.5931 48.6666 56.7226 48.6666H3.27742C2.4069 48.6666 1.57284 48.321 0.958512 47.7071C0.344317 47.0933 0 46.2617 0 45.3955V30.5566L11.9736 42.5219L11.9777 42.5259C12.4931 43.0321 13.186 43.315 13.907 43.315C14.628 43.315 15.3209 43.0321 15.8363 42.5259Z" fill="#369673"/>
<path d="M49.8601 32.196H44.2572C43.2054 32.196 42.3528 33.321 42.3528 34.7086V39.0952C42.3528 40.4829 43.2054 41.6078 44.2572 41.6078H49.8601C50.9119 41.6078 51.7645 40.4829 51.7645 39.0952V34.7086C51.7645 33.321 50.9119 32.196 49.8601 32.196Z" fill="#FDB427"/>
</g>
<defs>
<clipPath id="clip0_251_371">
<rect width="60" height="60" fill="white"/>
</clipPath>
</defs>
</svg>
