<svg width="163" height="34" viewBox="0 0 163 34" fill="none" xmlns="http://www.w3.org/2000/svg">
<path d="M63.9999 5.52079H73.0804C75.5307 5.52079 77.4868 6.16411 78.9487 7.45077C80.4107 8.717 81.1417 10.4836 81.1417 12.7505C81.1417 15.0788 80.4107 16.8658 78.9487 18.1116C77.5074 19.3574 75.5513 19.9803 73.0804 19.9803H68.6946V26.9344H63.9999V5.52079ZM72.4009 16.0897C75.0571 16.0897 76.3852 14.9767 76.3852 12.7505C76.3852 11.5047 76.0249 10.6368 75.3042 10.1466C74.6041 9.65645 73.6363 9.41138 72.4009 9.41138H68.6946V16.0897H72.4009Z" fill="#282828"/>
<path d="M90.6854 27.3939C88.8735 27.3939 87.3909 26.9446 86.2379 26.046C85.1054 25.1269 84.5391 23.8811 84.5391 22.3085C84.5391 20.6747 85.0848 19.4085 86.1761 18.5098C87.2674 17.5908 88.8117 17.1313 90.809 17.1313C91.6944 17.1313 92.5386 17.2232 93.3416 17.407C94.1447 17.5908 94.8551 17.8461 95.4728 18.1729V17.8053C95.4728 16.8862 95.1433 16.2123 94.4844 15.7834C93.8255 15.3545 92.8166 15.14 91.4576 15.14C89.6456 15.14 87.9778 15.477 86.4541 16.151V12.7812C87.113 12.4953 87.9675 12.2604 89.0176 12.0766C90.0677 11.8724 91.1179 11.7702 92.168 11.7702C94.8448 11.7702 96.8421 12.3217 98.1599 13.4245C99.4777 14.5069 100.137 16.0284 100.137 17.9891V26.9344H95.7508V25.5864C94.4947 26.7914 92.8063 27.3939 90.6854 27.3939ZM91.9518 24.3304C92.7136 24.3304 93.4034 24.1875 94.0211 23.9015C94.6389 23.6156 95.1227 23.2174 95.4728 22.7068V21.2363C94.4227 20.5419 93.2696 20.1947 92.0135 20.1947C91.1487 20.1947 90.4795 20.3786 90.006 20.7462C89.553 21.0934 89.3265 21.6141 89.3265 22.3085C89.3265 22.9621 89.553 23.4624 90.006 23.8096C90.4589 24.1568 91.1076 24.3304 91.9518 24.3304Z" fill="#282828"/>
<path d="M107.458 33C106.84 33 106.202 32.9592 105.543 32.8775C104.905 32.7958 104.421 32.6834 104.091 32.5405V29.0788C104.688 29.3034 105.347 29.4158 106.068 29.4158C106.809 29.4158 107.365 29.2524 107.736 28.9256C108.127 28.5988 108.446 28.0883 108.693 27.3939L109.187 26.1379L102.763 12.2298H107.458L111.658 22.3698L115.643 12.2298H120.306L114.006 27.9453C113.306 29.6813 112.441 30.9577 111.411 31.7746C110.382 32.5915 109.064 33 107.458 33Z" fill="#282828"/>
<path d="M125.134 9.41138H118.833V5.52079H136.129V9.41138H129.829V26.9344H125.134V9.41138Z" fill="#282828"/>
<path d="M141.518 9.9628C140.797 9.9628 140.19 9.72794 139.695 9.25821C139.201 8.78848 138.954 8.19621 138.954 7.4814C138.954 6.78702 139.201 6.20496 139.695 5.73523C140.19 5.24508 140.797 5 141.518 5C142.238 5 142.846 5.24508 143.34 5.73523C143.834 6.20496 144.081 6.78702 144.081 7.4814C144.081 8.19621 143.834 8.78848 143.34 9.25821C142.846 9.72794 142.238 9.9628 141.518 9.9628ZM139.17 12.2298H143.865V26.9344H139.17V12.2298Z" fill="#282828"/>
<path d="M156.977 27.3939C154.3 27.3939 152.169 26.7199 150.584 25.372C148.998 24.0036 148.205 22.0839 148.205 19.6127C148.205 17.1415 148.998 15.2217 150.584 13.8534C152.19 12.4646 154.331 11.7702 157.008 11.7702C159.438 11.7702 161.373 12.2195 162.815 13.1182V16.7637C162.156 16.2939 161.384 15.9468 160.498 15.7221C159.633 15.4974 158.717 15.3851 157.749 15.3851C156.308 15.3851 155.155 15.7323 154.29 16.4267C153.425 17.1211 152.993 18.1831 152.993 19.6127C152.993 21.0423 153.415 22.1043 154.259 22.7987C155.124 23.4726 156.277 23.8096 157.718 23.8096C159.716 23.8096 161.476 23.3297 163 22.3698V25.9847C161.476 26.9241 159.469 27.3939 156.977 27.3939Z" fill="#282828"/>
<path fill-rule="evenodd" clip-rule="evenodd" d="M2.75793 0H35L12.5691 23.6302L12.5683 23.631C12.3409 23.8684 12.0355 24 11.7189 24C11.4022 24 11.0966 23.8683 10.8692 23.6307L0 12.1958V2.91546C0 2.13952 0.292515 1.39704 0.810648 0.850913C1.32851 0.305074 2.02913 0 2.75793 0Z" fill="#369673"/>
<path fill-rule="evenodd" clip-rule="evenodd" d="M13.4608 28.7804L42.253 0H48.2142C48.9535 0 49.662 0.293285 50.184 0.814352C50.706 1.33531 50.9991 2.04127 51 2.77698V31.2195C51 31.9559 50.7073 32.6627 50.1853 33.1844C49.6631 33.7062 48.9541 34 48.2142 34H2.78581C2.04587 34 1.33692 33.7062 0.814735 33.1844C0.29267 32.6627 0 31.9559 0 31.2195V18.6064L10.1776 28.777L10.181 28.7804C10.6191 29.2106 11.2081 29.4511 11.8209 29.4511C12.4338 29.4511 13.0228 29.2106 13.4608 28.7804Z" fill="#369673"/>
<path d="M42.3811 20H37.6187C36.7246 20 35.9999 20.9562 35.9999 22.1357V25.8643C35.9999 27.0438 36.7246 28 37.6187 28H42.3811C43.2751 28 43.9999 27.0438 43.9999 25.8643V22.1357C43.9999 20.9562 43.2751 20 42.3811 20Z" fill="#FDB427"/>
</svg>
